<?xml version="1.0" encoding="UTF-8" standalone="no"?>
<!-- Created with Inkscape (http://www.inkscape.org/) -->
<svg id="svg8" xmlns:rdf="http://www.w3.org/1999/02/22-rdf-syntax-ns#" xmlns="http://www.w3.org/2000/svg" height="300" width="983" version="1.1" xmlns:cc="http://creativecommons.org/ns#" xmlns:dc="http://purl.org/dc/elements/1.1/" viewBox="0 0 260.08541 79.375002">
 <metadata id="metadata5">
  <rdf:RDF>
   <cc:Work rdf:about="">
    <dc:format>image/svg+xml</dc:format>
    <dc:type rdf:resource="http://purl.org/dc/dcmitype/StillImage"/>
    <dc:title/>
   </cc:Work>
  </rdf:RDF>
 </metadata>
 <g id="layer1" transform="translate(0 -217.62)" fill="#5b5b5b">
  <path id="path4234" style="color-rendering:auto;text-decoration-color:#000000;color:#000000;font-variant-numeric:normal;shape-rendering:auto;font-variant-ligatures:normal;text-decoration-line:none;font-variant-position:normal;mix-blend-mode:normal;solid-color:#000000;font-feature-settings:normal;shape-padding:0;font-variant-alternates:normal;text-indent:0;font-variant-caps:normal;image-rendering:auto;white-space:normal;text-decoration-style:solid;text-orientation:mixed;isolation:auto;text-transform:none" d="m8.7313 248.32c-2.1167 0-2.6458 0.52917-2.6458 2.6458v28.575c-0.000019 2.1167 0.52917 2.6458 2.6458 2.6458h20.109c2.1167 0 2.6458-0.52918 2.6458-2.6458v-28.575c0-2.1167-0.52899-2.6458-2.6432-2.6458h-0.0031zm-2.1167 2.1384h24.341v29.59h-24.341zm10.583 30.405h3.175v0.52917h-3.175z"/>
  <g id="g4395">
   <path id="path4306" style="color-rendering:auto;text-decoration-color:#000000;color:#000000;font-variant-numeric:normal;shape-rendering:auto;font-variant-ligatures:normal;text-decoration-line:none;font-variant-position:normal;mix-blend-mode:normal;solid-color:#000000;font-feature-settings:normal;shape-padding:0;font-variant-alternates:normal;text-indent:0;font-variant-caps:normal;image-rendering:auto;white-space:normal;text-decoration-style:solid;text-orientation:mixed;isolation:auto;text-transform:none" d="m71.438 248.32c-2.1167 0-2.6458 0.52917-2.6458 2.6458v20.108c-0.000019 2.1167 0.52917 2.6458 2.6458 2.6458h28.575c2.1167 0 2.6458-0.52917 2.6458-2.6458v-20.108c0-2.1167-0.52899-2.6458-2.6432-2.6458h-0.003zm-0.50746 0.52917h29.59v24.342h-29.59zm30.405 10.583h0.52917v3.175h-0.52917z"/>
   <path id="path4321" d="m63.765 280.6v2.1167h2.1167v-0.52917h-1.5875v-1.5875zm3.7042 0v2.1167h2.1167v-0.52917h-1.5875v-1.5875zm3.9688 0v2.1167h2.1167v-0.52917h-1.5875v-1.5875zm3.9688 0v2.1167h2.1167v-0.52917h-1.5875v-1.5875zm3.9688 0v2.1167h2.1167v-0.52917h-1.5875v-1.5875zm3.9688 0v2.1167h2.1167v-0.52917h-1.5875v-1.5875zm3.7042 0v2.1167h3.9688v-0.52917h-3.4396v-1.5875zm-23.283 3.7042v2.1167h3.9688v-0.52917h-3.441v-1.5875zm5.5562 0v2.1167h2.116v-0.52917h-1.588v-1.5875zm3.9688 0v2.1167h2.1167v-0.52917h-1.5875v-1.5875zm4.2333 0v2.1167h2.1167v-0.52917h-1.5875v-1.5875zm3.9688 0v2.1167h2.1167v-0.52917h-1.5875v-1.5875zm3.7042 0v2.1167h2.115v-0.52917h-1.587v-1.5875zm3.7042 0v2.1167h2.1167v-0.52917h-1.5875v-1.5875zm-25.135 3.7042v2.1167h2.1167v-0.52916h-1.5875v-1.5875zm3.7042 0v2.1167h2.1167v-0.52916h-1.5875v-1.5875zm3.9688 0v2.1167h10.054v-0.52916h-9.525v-1.5875zm11.906 0v2.1167h2.1167v-0.52916h-1.5875v-1.5875zm3.7042 0v2.1167h3.9688v-0.52916h-3.4396v-1.5875z"/>
   <path id="path4297" style="color-rendering:auto;text-decoration-color:#000000;color:#000000;font-variant-numeric:normal;shape-rendering:auto;font-variant-ligatures:normal;text-decoration-line:none;font-variant-position:normal;mix-blend-mode:normal;solid-color:#000000;font-feature-settings:normal;shape-padding:0;font-variant-alternates:normal;text-indent:0;dominant-baseline:auto;font-variant-caps:normal;image-rendering:auto;white-space:normal;text-decoration-style:solid;text-orientation:mixed;isolation:auto;text-transform:none" d="m64.025 277.95c-1.333 0.0154-2.282-0.008-2.9766 0.375-0.34727 0.1916-0.61106 0.50101-0.76758 0.91797-0.15652 0.41695-0.2207 0.93847-0.2207 1.6172v8.9961c0 0.67871 0.06419 1.2022 0.2207 1.6191 0.15652 0.41696 0.4203 0.72441 0.76758 0.91601 0.69455 0.38322 1.6436 0.36157 2.9766 0.37696h26.465c1.333-0.0154 2.284 0.006 2.9785-0.37696 0.34727-0.1916 0.61106-0.49905 0.76758-0.91601s0.2207-0.94043 0.2207-1.6191v-8.9961c0-0.67872-0.06419-1.2002-0.2207-1.6172-0.15652-0.41696-0.4203-0.72637-0.76758-0.91797-0.69455-0.38321-1.6455-0.35957-2.9785-0.375h-26.463zm0.0039 0.5293h26.459c1.3327 0.0155 2.235 0.0404 2.7246 0.31054 0.24516 0.13527 0.40634 0.31631 0.52734 0.63867 0.12101 0.32236 0.1875 0.78744 0.1875 1.4316v8.9961c0 0.6442-0.06649 1.1112-0.1875 1.4336-0.12101 0.32237-0.28218 0.50341-0.52734 0.63867-0.48963 0.27016-1.3919 0.29511-2.7246 0.31055h-26.459c-1.3343-0.0154-2.2346-0.0402-2.7246-0.31055-0.24516-0.13527-0.40829-0.3163-0.5293-0.63867s-0.18555-0.78939-0.18555-1.4336v-8.9961c0-0.64421 0.06454-1.1093 0.18555-1.4316 0.12101-0.32236 0.28413-0.5034 0.5293-0.63867 0.48998-0.27034 1.3903-0.2951 2.7246-0.31054z"/>
   <path id="path4171-8" style="color-rendering:auto;text-decoration-color:#000000;color:#000000;font-variant-numeric:normal;shape-rendering:auto;font-variant-ligatures:normal;text-decoration-line:none;font-variant-position:normal;mix-blend-mode:normal;solid-color:#000000;font-feature-settings:normal;shape-padding:0;font-variant-alternates:normal;text-indent:0;dominant-baseline:auto;font-variant-caps:normal;image-rendering:auto;white-space:normal;text-decoration-style:solid;text-orientation:mixed;isolation:auto;text-transform:none" d="m105.83 277.95c-1.3286 0-2.6561 0.22537-3.9102 0.66406l-0.14258 0.0508-0.0312 0.14844-1.0918 5.2422c-0.19477 0.93526-0.38592 1.8963-0.38281 2.8848 0.003 0.98909 0.20517 1.9909 0.66406 2.8828 0.45906 0.89221 1.166 1.6533 2.0293 2.168 0.86277 0.51439 1.8651 0.77735 2.8652 0.77735s2.0005-0.26298 2.8633-0.77735c0.8633-0.51468 1.5702-1.2758 2.0293-2.168 0.4589-0.89189 0.66095-1.8937 0.66406-2.8828 0.003-0.98845-0.18609-1.9495-0.38086-2.8848l-1.123-5.3906-0.14258-0.0508c-1.2541-0.43869-2.5816-0.66406-3.9102-0.66406zm0 0.53516c1.2216 0 2.4376 0.22232 3.5957 0.61132l1.0566 5.0684c0.19393 0.93126 0.37211 1.8554 0.36914 2.7734-0.003 0.91741-0.19014 1.8372-0.60352 2.6406-0.4132 0.80309-1.0538 1.4915-1.8281 1.9531-0.77483 0.46193-1.6834 0.70117-2.5898 0.70117-0.90643 0-1.817-0.23923-2.5918-0.70117-0.7743-0.46162-1.4149-1.15-1.8281-1.9531-0.41337-0.8034-0.60054-1.7232-0.60352-2.6406-0.003-0.91811 0.17717-1.8422 0.3711-2.7734l1.0547-5.0684c1.1581-0.38902 2.376-0.61132 3.5976-0.61132z"/>
   <path id="path4197" style="color-rendering:auto;text-decoration-color:#000000;color:#000000;font-variant-numeric:normal;shape-rendering:auto;font-variant-ligatures:normal;text-decoration-line:none;font-variant-position:normal;mix-blend-mode:normal;solid-color:#000000;font-feature-settings:normal;shape-padding:0;font-variant-alternates:normal;text-indent:0;dominant-baseline:auto;font-variant-caps:normal;image-rendering:auto;white-space:normal;text-decoration-style:solid;text-orientation:mixed;isolation:auto;text-transform:none" d="m105.57 278.28v4.8066h0.52929v-4.8066z"/>
  </g>
  <g id="g4406">
   <path id="path4674" style="color-rendering:auto;text-decoration-color:#000000;color:#000000;font-variant-numeric:normal;shape-rendering:auto;font-variant-ligatures:normal;text-decoration-line:none;font-variant-position:normal;mix-blend-mode:normal;solid-color:#000000;font-feature-settings:normal;shape-padding:0;font-variant-alternates:normal;text-indent:0;dominant-baseline:auto;font-variant-caps:normal;image-rendering:auto;white-space:normal;text-decoration-style:solid;text-orientation:mixed;isolation:auto;text-transform:none" d="m196.59 263.66v3.1523c0 1.229-0.10624 2.1398-0.30664 2.8008-0.20041 0.66095-0.48491 1.0681-0.85547 1.3418-0.74113 0.54735-1.9428 0.57032-3.6016 0.57032h-0.26368v2.1875h22.219v-2.1875h-0.26367c-1.6588 0-2.8582-0.0231-3.5976-0.57032-0.36973-0.27358-0.65367-0.68078-0.85352-1.3418s-0.30664-1.5717-0.30664-2.8008v-3.1524zm0.52929 0.5293h11.111v2.623c0 1.2592 0.10676 2.2145 0.33008 2.9531 0.22332 0.73866 0.57396 1.2648 1.0449 1.6133 0.88569 0.65538 2.1258 0.66611 3.6465 0.66602v1.1387h-21.16v-1.1387c1.5209 0.00009 2.7632-0.009 3.6504-0.66406 0.47175-0.34841 0.82289-0.87652 1.0469-1.6152 0.22398-0.73872 0.33007-1.6938 0.33007-2.9531z"/>
   <path id="path4482" style="color-rendering:auto;text-decoration-color:#000000;color:#000000;font-variant-numeric:normal;shape-rendering:auto;font-variant-ligatures:normal;text-decoration-line:none;font-variant-position:normal;mix-blend-mode:normal;solid-color:#000000;font-feature-settings:normal;shape-padding:0;font-variant-alternates:normal;text-indent:0;dominant-baseline:auto;font-variant-caps:normal;image-rendering:auto;white-space:normal;text-decoration-style:solid;text-orientation:mixed;isolation:auto;text-transform:none" d="m172.24 220.54c-1.0804 0-1.8247 0.12739-2.3047 0.60742-0.48002 0.48002-0.60547 1.2224-0.60547 2.3027v25.312h0.5293v-25.312c0-1.0363 0.13745-1.616 0.45117-1.9297 0.31373-0.31372 0.8934-0.45117 1.9297-0.45117h61.121c1.0351 0 1.6143 0.13748 1.9277 0.45117 0.31343 0.3137 0.45117 0.8934 0.45117 1.9297v37.836c0 1.0363-0.1394 1.616-0.45312 1.9297-0.31373 0.31372-0.89145 0.45117-1.9277 0.45117h-57.707v0.5293h57.707c1.0804 0 1.8227-0.12545 2.3027-0.60547 0.48002-0.48003 0.60742-1.2243 0.60742-2.3047v-37.836c0-1.0804-0.12779-1.8227-0.60742-2.3027-0.47964-0.48005-1.2216-0.60742-2.3008-0.60742h-0.004z"/>
   <path id="path4484" style="color-rendering:auto;text-decoration-color:#000000;color:#000000;font-variant-numeric:normal;shape-rendering:auto;font-variant-ligatures:normal;text-decoration-line:none;font-variant-position:normal;mix-blend-mode:normal;solid-color:#000000;font-feature-settings:normal;shape-padding:0;font-variant-alternates:normal;text-indent:0;dominant-baseline:auto;font-variant-caps:normal;image-rendering:auto;white-space:normal;text-decoration-style:solid;text-orientation:mixed;isolation:auto;text-transform:none" d="m171.06 222.26v26.36h0.5293v-25.834h62.436v35.973h-58.232v0.5293h58.762v-37.031z"/>
   <path id="path4225" style="color-rendering:auto;text-decoration-color:#000000;color:#000000;font-variant-numeric:normal;shape-rendering:auto;font-variant-ligatures:normal;text-decoration-line:none;font-variant-position:normal;mix-blend-mode:normal;solid-color:#000000;font-feature-settings:normal;shape-padding:0;font-variant-alternates:normal;text-indent:0;font-variant-caps:normal;image-rendering:auto;white-space:normal;text-decoration-style:solid;text-orientation:mixed;isolation:auto;text-transform:none" d="m145.52 248.32c-2.1167 0-2.6458 0.52917-2.6458 2.6458v20.108c-0.00002 2.1167 0.52916 2.6458 2.6458 2.6458h28.575c2.1167 0 2.6458-0.52917 2.6458-2.6458v-20.108c0-2.1167-0.52899-2.6458-2.6432-2.6458h-0.003zm-0.50747 0.52917h29.59v24.342h-29.59zm30.405 10.583h0.52917v3.175h-0.52917z"/>
   <path id="path4235" d="m189.18 280.6v2.1167h2.1167v-0.52917h-1.5875v-1.5875zm3.7042 0v2.1167h2.1167v-0.52917h-1.5875v-1.5875zm3.9688 0v2.1167h2.1167v-0.52917h-1.5875v-1.5875zm3.9688 0v2.1167h2.1167v-0.52917h-1.5875v-1.5875zm3.9688 0v2.1167h2.1167v-0.52917h-1.5875v-1.5875zm3.9688 0v2.1167h2.1167v-0.52917h-1.5875v-1.5875zm3.7042 0v2.1167h3.9688v-0.52917h-3.4396v-1.5875zm-23.283 3.7042v2.1167h3.9688v-0.52917h-3.4396v-1.5875zm5.5562 0v2.1167h2.1167v-0.52917h-1.5875v-1.5875zm3.9688 0v2.1167h2.1167v-0.52917h-1.5875v-1.5875zm4.2333 0v2.1167h2.1167v-0.52917h-1.5875v-1.5875zm3.9688 0v2.1167h2.1167v-0.52917h-1.5875v-1.5875zm3.7042 0v2.1167h2.1167v-0.52917h-1.5875v-1.5875zm3.7042 0v2.1167h2.1167v-0.52917h-1.5875v-1.5875zm-25.135 3.7042v2.1167h2.1167v-0.52916h-1.5875v-1.5875zm3.7042 0v2.1167h2.1167v-0.52916h-1.5875v-1.5875zm3.9688 0v2.1167h10.054v-0.52916h-9.525v-1.5875zm11.906 0v2.1167h2.1167v-0.52916h-1.5875v-1.5875zm3.7042 0v2.1167h3.9688v-0.52916h-3.4396v-1.5875z"/>
   <path id="path4237" style="color-rendering:auto;text-decoration-color:#000000;color:#000000;font-variant-numeric:normal;shape-rendering:auto;font-variant-ligatures:normal;text-decoration-line:none;font-variant-position:normal;mix-blend-mode:normal;solid-color:#000000;font-feature-settings:normal;shape-padding:0;font-variant-alternates:normal;text-indent:0;dominant-baseline:auto;font-variant-caps:normal;image-rendering:auto;white-space:normal;text-decoration-style:solid;text-orientation:mixed;isolation:auto;text-transform:none" d="m189.44 277.95c-1.333 0.0154-2.284-0.008-2.9785 0.375-0.34728 0.1916-0.61106 0.50101-0.76758 0.91797-0.15652 0.41695-0.2207 0.93847-0.2207 1.6172v8.9961c0 0.67871 0.0642 1.2022 0.2207 1.6191 0.15652 0.41696 0.4203 0.72441 0.76758 0.91601 0.69454 0.38322 1.6455 0.36157 2.9785 0.37696h26.463c1.333-0.0154 2.284 0.006 2.9785-0.37696 0.34727-0.1916 0.61106-0.49905 0.76758-0.91601 0.15651-0.41696 0.2207-0.94043 0.2207-1.6191v-8.9961c0-0.67872-0.0642-1.2002-0.2207-1.6172-0.15652-0.41696-0.42031-0.72637-0.76758-0.91797-0.69455-0.38321-1.6455-0.35957-2.9785-0.375h-0.002zm0.002 0.5293h26.459c1.3327 0.0155 2.235 0.0404 2.7246 0.31054 0.24516 0.13527 0.40634 0.31631 0.52734 0.63867 0.12101 0.32236 0.1875 0.78744 0.1875 1.4316v8.9961c0 0.6442-0.0665 1.1112-0.1875 1.4336-0.121 0.32237-0.28218 0.50341-0.52734 0.63867-0.48963 0.27016-1.3919 0.29511-2.7246 0.31055h-26.459c-1.3327-0.0154-2.235-0.0404-2.7246-0.31055-0.24517-0.13526-0.40634-0.3163-0.52735-0.63867s-0.1875-0.78939-0.1875-1.4336v-8.9961c0-0.64421 0.0665-1.1093 0.1875-1.4316 0.12101-0.32236 0.28218-0.5034 0.52735-0.63867 0.48963-0.27015 1.3919-0.2951 2.7246-0.31054z"/>
   <path id="path4239" style="color-rendering:auto;text-decoration-color:#000000;color:#000000;font-variant-numeric:normal;shape-rendering:auto;font-variant-ligatures:normal;text-decoration-line:none;font-variant-position:normal;mix-blend-mode:normal;solid-color:#000000;font-feature-settings:normal;shape-padding:0;font-variant-alternates:normal;text-indent:0;dominant-baseline:auto;font-variant-caps:normal;image-rendering:auto;white-space:normal;text-decoration-style:solid;text-orientation:mixed;isolation:auto;text-transform:none" d="m231.24 277.95c-1.3286 0-2.6561 0.22537-3.9102 0.66406l-0.14257 0.0508-0.0312 0.14844-1.0918 5.2422c-0.19477 0.93526-0.38592 1.8963-0.38281 2.8848 0.003 0.98909 0.20517 1.9909 0.66406 2.8828 0.45906 0.89221 1.166 1.6533 2.0293 2.168 0.86277 0.51439 1.8651 0.77735 2.8652 0.77735s2.0005-0.26298 2.8633-0.77735c0.86329-0.51468 1.5702-1.2758 2.0293-2.168 0.4589-0.89189 0.66095-1.8937 0.66406-2.8828 0.003-0.98845-0.18609-1.9495-0.38086-2.8848l-1.123-5.3906-0.14258-0.0508c-1.2541-0.43869-2.5816-0.66406-3.9102-0.66406zm0 0.53516c1.2223 0 2.439 0.22191 3.5977 0.61132l1.0547 5.0684c0.19394 0.93126 0.37407 1.8554 0.3711 2.7734-0.003 0.91741-0.19209 1.8372-0.60547 2.6406-0.4132 0.80309-1.0538 1.4915-1.8281 1.9531-0.77482 0.46193-1.6834 0.70117-2.5898 0.70117-0.90643 0-1.815-0.23923-2.5898-0.70117-0.77431-0.46162-1.4169-1.15-1.8301-1.9531-0.41337-0.8034-0.60054-1.7232-0.60352-2.6406-0.003-0.91811 0.17717-1.8422 0.3711-2.7734l1.0547-5.0684c1.1581-0.38902 2.376-0.61132 3.5977-0.61132z"/>
   <path id="path4243" style="color-rendering:auto;text-decoration-color:#000000;color:#000000;font-variant-numeric:normal;shape-rendering:auto;font-variant-ligatures:normal;text-decoration-line:none;font-variant-position:normal;mix-blend-mode:normal;solid-color:#000000;font-feature-settings:normal;shape-padding:0;font-variant-alternates:normal;text-indent:0;dominant-baseline:auto;font-variant-caps:normal;image-rendering:auto;white-space:normal;text-decoration-style:solid;text-orientation:mixed;isolation:auto;text-transform:none" d="m230.98 278.28v4.8066h0.52929v-4.8066z"/>
   <path id="path4251" style="color-rendering:auto;text-decoration-color:#000000;color:#000000;font-variant-numeric:normal;shape-rendering:auto;font-variant-ligatures:normal;text-decoration-line:none;font-variant-position:normal;mix-blend-mode:normal;solid-color:#000000;font-feature-settings:normal;shape-padding:0;font-variant-alternates:normal;text-indent:0;dominant-baseline:auto;font-variant-caps:normal;image-rendering:auto;white-space:normal;text-decoration-style:solid;text-orientation:mixed;isolation:auto;text-transform:none" d="m142.88 260.75c-1.6169 0-2.7578 0.26762-3.4941 1.0039-0.73629 0.73629-1.0039 1.8772-1.0039 3.4941v8.4668c0 1.6169 0.26762 2.7578 1.0039 3.4941 0.73629 0.73629 1.8772 1.0039 3.4941 1.0039h25.4c1.5581 0 2.5325 0.26104 3.1191 0.84766 0.58662 0.58662 0.84961 1.563 0.84961 3.1211v6.3496c0 1.6169 0.26761 2.7578 1.0039 3.4941s1.8772 1.0039 3.4941 1.0039 2.7578-0.26761 3.4941-1.0039c0.73629-0.73629 1.0039-1.8772 1.0039-3.4941v-24.605h-0.52929v24.605c0 1.5581-0.26299 2.5345-0.84961 3.1211-0.58663 0.58662-1.561 0.84765-3.1191 0.84765s-2.5345-0.26103-3.1211-0.84765c-0.58662-0.58663-0.84765-1.563-0.84765-3.1211v-6.3496c0-1.6169-0.26762-2.7578-1.0039-3.4941-0.73629-0.73629-1.8772-1.0039-3.4941-1.0039h-25.4c-1.5581 0-2.5345-0.26299-3.1211-0.84961-0.58663-0.58662-0.84766-1.561-0.84766-3.1191v-8.47c0-1.5581 0.26103-2.5345 0.84766-3.1211 0.58662-0.58663 1.563-0.84766 3.1211-0.84766z"/>
  </g>
 </g>
</svg>