<svg xmlns:rdf="http://www.w3.org/1999/02/22-rdf-syntax-ns#" xmlns="http://www.w3.org/2000/svg" xmlns:osb="http://www.openswatchbook.org/uri/2009/osb" height="539.82" width="543.19" version="1.1" xmlns:cc="http://creativecommons.org/ns#" xmlns:xlink="http://www.w3.org/1999/xlink" viewBox="0 0 143.71962 142.82615" xmlns:dc="http://purl.org/dc/elements/1.1/">
<defs>
<linearGradient id="linearGradient4592" y2="330.82" gradientUnits="userSpaceOnUse" x2="25.414" gradientTransform="matrix(.26299 0 0 .26299 -171.86 160.91)" y1="195.78" x1="25.414">
<stop style="stop-color:#f1f0e9" offset="0"/>
<stop style="stop-color:#f4f3ed" offset="1"/>
</linearGradient>
<linearGradient id="linearGradient3858">
<stop offset="0"/>
<stop style="stop-opacity:0" offset="1"/>
</linearGradient>
<linearGradient id="linearGradient4226" y2="512" gradientUnits="userSpaceOnUse" x2="351.84" x1="138.67">
<stop style="stop-color:#3e3e3e" offset="0"/>
<stop style="stop-color:#5c5c5c" offset="1"/>
</linearGradient>
<linearGradient id="linearGradient4251" y2="208" gradientUnits="userSpaceOnUse" y1="304" gradientTransform="matrix(.75 0 0 .83333 0 42.667)" x2="16" x1="16">
<stop style="stop-color:#d9d9d9" offset="0"/>
<stop style="stop-color:#ececec" offset="1"/>
</linearGradient>
<linearGradient id="linearGradient4268" xlink:href="#linearGradient3858" spreadMethod="reflect" gradientUnits="userSpaceOnUse" y1="258" gradientTransform="matrix(1 0 0 .83333 -40 43)" x2="0" y2="208"/>
<clipPath id="clipPath4258" clipPathUnits="userSpaceOnUse">
<path d="m126.05 18c-145.29 0-166.05 20.737-166.05 165.9v144.2c0 145.16 20.757 165.9 166.05 165.9h179.9c145.29 0 166.05-20.74 166.05-165.9v-144.2c0-145.16-20.76-165.9-166.05-165.9z" style="color:#000000;fill:url(#linearGradient4263)"/>
</clipPath>
<linearGradient id="linearGradient4263" y2="494" gradientUnits="userSpaceOnUse" y1="18" gradientTransform="translate(-40)" x2="512">
<stop style="stop-color:#e93549" offset="0"/>
<stop style="stop-color:#ef6b6b" offset="1"/>
</linearGradient>
<filter id="filter4277" style="color-interpolation-filters:sRGB" height="1.3552" width="1.0555" y="-.1776" x="-.02775">
<feGaussianBlur stdDeviation="5.92"/>
</filter>
<radialGradient id="radialGradient4404" cx="-256" gradientUnits="userSpaceOnUse" cy="-256.2" r="96" gradientTransform="matrix(0 -1.4979 -1.4979 0 -127.57 -127.47)">
<stop style="stop-opacity:0" offset="0"/>
<stop style="stop-opacity:0" offset=".89867"/>
<stop style="stop-opacity:.26166" offset=".94933"/>
<stop offset="1"/>
</radialGradient>
<linearGradient id="linearGradient4301" y2="-256" gradientUnits="userSpaceOnUse" y1="-256" x2="-82" x1="-434">
<stop style="stop-opacity:0" offset="0"/>
<stop offset=".50477"/>
<stop style="stop-opacity:0" offset="1"/>
</linearGradient>
<filter id="filter4291" style="color-interpolation-filters:sRGB" height="1.192" width="1.192" y="-0.096" x="-0.096">
<feGaussianBlur stdDeviation="14.079999"/>
</filter>
<filter id="filter4323" style="color-interpolation-filters:sRGB" height="1.024" width="1.024" y="-.012" x="-.012">
<feGaussianBlur stdDeviation="1.7599998"/>
</filter>
<linearGradient id="linearGradient4269">
<stop style="stop-color:#d9eabb" offset="0"/>
<stop style="stop-color:#f0f7e5" offset="1"/>
</linearGradient>
<linearGradient id="linearGradient4226-0" y2="494" gradientUnits="userSpaceOnUse" x2="512" y1="18">
<stop style="stop-color:#4d9a35" offset="0"/>
<stop style="stop-color:#88b637" offset="1"/>
</linearGradient>
<linearGradient id="linearGradient4432" y2="255.67" gradientUnits="userSpaceOnUse" x2="344.65" y1="236.42" x1="364.35">
<stop style="stop-color:#88b637" offset="0"/>
<stop style="stop-color:#88b637;stop-opacity:0" offset="1"/>
</linearGradient>
<linearGradient id="linearGradient4257" y2="154.86" xlink:href="#linearGradient4269" gradientUnits="userSpaceOnUse" x2="464" y1="460.98" x1="126.19"/>
<linearGradient id="linearGradient4284" y2="48.21" gradientUnits="userSpaceOnUse" x2="309.45" gradientTransform="translate(-.0000016559 2.886)" y1="463.79" x1="309.45">
<stop style="stop-opacity:0" offset="0"/>
<stop offset=".49620"/>
<stop style="stop-opacity:0" offset="1"/>
</linearGradient>
<filter id="filter4300" style="color-interpolation-filters:sRGB" height="1.192" width="1.192" y="-.096002" x="-.095998">
<feGaussianBlur stdDeviation="16.623603"/>
</filter>
<filter id="filter4315" style="color-interpolation-filters:sRGB" height="1.024" width="1.024" y="-0.012" x="-0.012">
<feGaussianBlur stdDeviation="2.0779504"/>
</filter>
<filter id="filter4340" style="color-interpolation-filters:sRGB" height="1.0293" width="1.0203" y="-.014674" x="-.010150">
<feGaussianBlur stdDeviation="0.64284005"/>
</filter>
<linearGradient id="linearGradient4354" y2="228.03" xlink:href="#linearGradient3858" gradientUnits="userSpaceOnUse" y1="228.03" x2="35.696" x1="256"/>
<filter id="filter4422" style="color-interpolation-filters:sRGB" height="1.3522" width="1.2436" y="-.17609" x="-.12180">
<feGaussianBlur stdDeviation="7.7140806"/>
</filter>
<linearGradient id="linearGradient4284-5" x1="256" xlink:href="#linearGradient3858" spreadMethod="reflect" gradientUnits="userSpaceOnUse" y1="256" x2="558.25" y2="256"/>
</defs>
<g transform="translate(185.99 -199.77)">
<g transform="matrix(.26105 0 0 .26105 -89.694 170.38)">
<path style="stroke-width:4.233;fill:#494949" d="m0.000007003 161.5v135.5h135.5v-135.5z"/>
<path style="stroke-width:4.233;fill:#4f4f4f" d="m0 270.5v26.53h135.5v-135.5h-26.55z"/>
<path style="stroke-width:3.372;fill:#d1d1d1" d="m35.73 192.9c-4.414-0.002-8.029 3.628-8.029 8.045v49.85c0 4.414 3.611 8.029 8.029 8.029h64.23c4.414 0 8.029-3.611 8.029-8.029v-43.41c0-4.414-36.89-8.067-36.89-8.067l-6.517-6.403z"/>
<path style="stroke-width:3.372;fill:#f2f2f2" d="m99.97 199.3c4.414 0.0002 8.029 3.613 8.029 8.031v49.85c0 4.414-3.611 8.029-8.029 8.029h-64.241c-4.414 0-8.029-3.611-8.029-8.029v-42.89c0-4.414 3.612-8.101 8.029-8.029h28.94l6.441-6.97z"/>
</g>
<rect style="color:#000000;fill:#f9f8f5" ry=".0000020292" height="35.626" width="35.626" y="212.29" x="-173.81"/>
<path d="m-153.76 231.06h11.064v1.0537h-11.064z" style="color:#000000;fill:#c0cbe7"/>
<path style="color:#000000;fill:#c0cbe7" d="m-153.76 233.86h11.064v1.0537h-11.064z"/>
<path d="m-153.76 236.53h6.0517v1.0537h-6.0517z" style="color:#000000;fill:#c0cbe7"/>
<path d="m-153.76 222.56h11.064v1.0537h-11.064z" style="color:#000000;fill:#869ed9"/>
<path style="color:#000000;fill:#869ed9" d="m-153.76 225.42h11.064v1.0537h-11.064z"/>
<path style="color-rendering:auto;color:#000000;font-variant-numeric:normal;shape-rendering:auto;font-variant-ligatures:none;text-decoration-line:none;stroke-width:.39955;fill:#e24a3f;font-variant-position:normal;mix-blend-mode:normal;text-decoration-color:#000000;font-feature-settings:normal;shape-padding:0;font-variant-alternates:normal;text-indent:0;font-variant-caps:normal;image-rendering:auto;white-space:normal;text-decoration-style:solid;solid-color:#000000;isolation:auto;text-transform:none" d="m-153.81 230.35 5.4627-3.0053-0.0289-13.915h-5.4219z"/>
<rect style="color:#000000;fill:url(#linearGradient4592)" ry=".0000020292" height="35.626" width="17.661" y="212.29" x="-173.81"/>
<rect style="color:#000000;fill:#ced6e5" ry=".0000020292" height="15.013" width="11.144" y="222.57" x="-169.36"/>
<path style="fill:#94a8d9" d="m-163.8 225.64c-0.87965 0.00008-1.7302 0.37115-2.3521 1.0259-0.62204 0.65483-0.97419 1.5501-0.97419 2.4759v0.003c0.001 0.35644 0.0334 0.76662 0.20146 1.1827 0.43805 1.0847 1.0948 1.927 1.6946 2.578h-0.001c0.16563 0.18921 0.35442 0.38134 0.54261 0.5661h1.7555c0.19055-0.18633 0.38527-0.37962 0.56571-0.56722h-0.001c0.59959-0.65086 1.2562-1.4926 1.694-2.5769 0.16801-0.41602 0.20014-0.82615 0.20146-1.1827v-0.003c0-0.92594-0.35251-1.8212-0.97447-2.4759-0.62187-0.65465-1.4722-1.0258-2.3519-1.0259h-0.00029z"/>
<path style="fill:#7591d3" d="m-160.81 232.49c-0.39425 0.56948-0.82335 1.063-1.2324 1.4848h0.001c-0.7491 0.73981-1.7564 1.6231-1.7564 1.6231s-1.0676-0.86766-1.7628-1.622h0.001c-0.40856-0.42125-0.83739-0.91399-1.2313-1.4826-0.0176 0.007-0.0356 0.0123-0.0532 0.0192-0.94902 0.35971-1.787 0.83804-2.5141 1.435v3.6335h11.113v-3.6335c-0.72707-0.59696-1.561-1.0753-2.5024-1.435-0.0208-0.008-0.0421-0.0147-0.0629-0.0225z"/>
<path style="fill:#718dd2;fill-rule:evenodd" d="m-165.83 227.1s1.3532 1.0813 2.1942 1.3136c1.5157 0.41862 2.1653 0.2887 2.1653 0.2887s0.0549 0.42558 0.2887 0.79394c0.52604 0.82888 0.49838 0.83383 0.49838 0.83383s0.49264-1.2982-0.0436-2.7247c-0.28759-0.76509-1.4111-1.9801-3.0812-1.9541-2.0325 0.0317-2.9283 1.5018-3.2154 2.6443-0.28596 1.1381 0.0618 1.9775 0.0618 1.9775s0.51106-0.60365 0.78533-1.3832c0.27427-0.77951 0.34645-1.79 0.34645-1.79z"/>
<g transform="matrix(.070858 0 0 .070858 -174.1 253.18)">
<path style="color:#000000;fill:url(#linearGradient4226)" d="m0 0v512h512v-512z"/>
<text y="358.758" x="88.766083" xml:space="preserve" style="letter-spacing:0px;line-height:0%;word-spacing:0px;font-family:Ubuntu;fill:#ececec"><tspan x="88.766083" style="font-size:296.13px;line-height:1.25;fill:#ececec" y="358.758">28</tspan></text>
<path style="opacity:0.08;color:#000000;fill:#fff" d="m0 256v256h512v-256z"/>
<path style="fill:#f9f9f9" d="m201.44 288c-2.8895 2.9235-5.8843 5.8825-9.0117 8.8848-5.9226 5.9226-11.944 12.042-18.064 18.359-6.1201 6.3175-11.646 13.03-16.582 20.137-4.9355 7.1072-8.9838 14.708-12.143 22.803-2.9613 7.8969-4.4414 16.485-4.4414 25.764v3.2578c0 1.1845 0.0994 2.3682 0.29687 3.5527h124.38v-23.4h-94.48c0-3.3562 1.2831-7.305 3.8496-11.846 2.7639-4.5407 6.1199-9.2774 10.068-14.213 3.9484-4.9356 8.0942-9.6742 12.438-14.215l11.846-11.846c5.9226-5.9226 11.845-11.944 17.768-18.064 2.8685-3.0597 5.5908-6.1203 8.1816-9.1797zm133.3 0c-3.3828 2.2823-6.6522 4.8452-9.8066 7.6992-3.9484 3.5536-7.5014 7.6019-10.66 12.143-2.9613 4.5407-5.4301 9.4763-7.4043 14.807-1.7768 5.133-2.6641 10.562-2.6641 16.287 0 5.9226 1.0842 12.239 3.2559 18.951 2.1716 6.5149 5.8241 12.537 10.957 18.064 5.133 5.5278 11.944 10.167 20.434 13.918 8.6866 3.5536 19.447 5.3301 32.279 5.3301 11.056 0 20.827-1.4801 29.316-4.4414 8.4891-2.7639 15.498-6.7127 21.025-11.846 5.7252-5.3304 9.9705-11.45 12.734-18.359 2.9613-7.1072 4.4414-14.806 4.4414-23.098-0.36-21.86-10.32-38.35-29.85-49.46zm25.137 6.8106c7.8969 1.7768 14.905 3.9491 21.025 6.5156 6.3175 2.3691 11.649 5.3292 15.992 8.8828 4.5407 3.5536 7.9942 7.7013 10.363 12.439 2.3691 4.7381 3.5547 10.265 3.5547 16.582 0 4.1458-0.78976 8.1941-2.3691 12.143-1.5794 3.9484-3.9487 7.5014-7.1074 10.66-3.1588 2.9613-7.3045 5.4281-12.438 7.4024-4.9355 1.9742-10.76 2.9629-17.473 2.9629-7.502 0-13.721-1.0862-18.656-3.2578-4.9355-2.1716-8.9819-4.8373-12.141-7.9961-3.1588-3.3562-5.4286-6.9092-6.8106-10.66-1.1845-3.9484-1.7773-7.7003-1.7773-11.254 0-10.069 2.3693-18.754 7.1074-26.059 4.9356-7.3046 11.845-13.426 20.729-18.361z" transform="translate(-32,-32)"/>
</g>
<g transform="matrix(.070858 0 0 .070858 -174.1 253.18)">
<path style="opacity:.05;fill-opacity:0;color:#000000" d="m219.31 124-35.188 71.656v59.25c-4.9399 5.788-10.339 11.62-15.969 17.25-18.503 18.503-39.248 34.687-53.125 39.312l-23.374-23.35-71.656 35.19v170.69h256v-317.56c-15.42-33.45-32.37-45.92-56.69-52.44zm-97.56 229c0.007-0.005 0.0239 0.005 0.0312 0-2.6107 1.6304-5.251 3.2267-7.9062 4.8125 2.6559-1.5856 5.2637-3.1824 7.875-4.8125zm-24.094 14.062c0.008-0.004 0.0234 0.004 0.0312 0-2.7418 1.4991-5.5286 2.9806-8.3125 4.4375 2.7843-1.4568 5.5391-2.9386 8.2813-4.4375z"/>
<g style="filter:url(#filter4277)" transform="translate(40)" clip-path="url(#clipPath4258)">
<path style="opacity:.4;color:#000000;fill:url(#linearGradient4268)" d="m-40 218v80h24v-80zm488 0v80h24v-80z"/>
</g>
<path style="color:#000000;fill:url(#linearGradient4251)" d="m0 216v80h24v-80zm488 0v80h24v-80z"/>
<path style="color:#000000;fill:#fff" d="m0 216v2h24v-2zm488 0v2h24v-2z"/>
</g>
<g style="enable-background:new" transform="matrix(.070858 0 0 .070858 -162.76 253.18)">
<g transform="translate(-80,212)">
<path style="color:#000000;opacity:.8;enable-background:new;fill:none" d="m86.062-196.23h179.88c145.3 0 166.06 20.713 166.06 165.87v148.72c0 145.16-20.765 165.88-166.06 165.88h-179.88c-145.3 0-166.06-20.714-166.06-165.88v-148.72c0-145.16 20.765-165.87 166.06-165.87z"/>
</g>
</g>
<g style="enable-background:new" transform="matrix(.069721 0 0 .069721 -131.71 253.48)">
<path d="m0 0v512h512v-512z" style="color:#000000;enable-background:accumulate;fill:#eeecea"/>
<path d="m0 256v256h512v-256h-483.56z" style="opacity:.4;color:#000000;enable-background:accumulate;fill:#fff"/>
<circle cx="428" cy="84" r="12" style="color:#000000;enable-background:accumulate;fill:#df382c"/>
<circle style="opacity:.1;fill-opacity:.99608;color:#000000;filter:url(#filter4323);enable-background:accumulate" cx="-258" transform="matrix(0,-1,-1,0,0,0)" cy="-256" r="176"/>
<circle style="opacity:.4;color:#000000;filter:url(#filter4291);enable-background:accumulate;fill:url(#linearGradient4301)" cx="-258" transform="matrix(0,-1,-1,0,0,2e-6)" cy="-256" r="176"/>
<circle style="color:#000000;enable-background:accumulate;fill:#fcfcfc" transform="matrix(0,-1,-1,0,0,0)" cy="-256" cx="-256" r="176"/>
<circle style="color:#000000;enable-background:accumulate;fill:#b6e2f3" cx="-256" transform="matrix(0,-1,-1,0,0,0)" cy="-256.2" r="143.8"/>
<path d="m256.2 112.2a143.8 143.8 0 0 0 -143.8 143.8 143.8 143.8 0 0 0 143.8 143.8 143.8 143.8 0 0 0 143.8 -143.8 143.8 143.8 0 0 0 -143.8 -143.8zm0 51.449a92.352 92.352 0 0 1 92.352 92.352 92.352 92.352 0 0 1 -92.352 92.352 92.352 92.352 0 0 1 -92.35 -92.35 92.352 92.352 0 0 1 92.35 -92.35z" style="opacity:.05;color:#000000;enable-background:accumulate;fill:url(#radialGradient4404)"/>
<circle style="color:#000000;enable-background:accumulate;fill:#369ad4" cx="-256" transform="matrix(0,-1,-1,0,0,0)" cy="-256.2" r="110.8"/>
<circle style="color:#000000;enable-background:accumulate;fill:#1c629d" cx="-256" transform="matrix(0,-1,-1,0,0,0)" cy="-256.2" r="71.8"/>
<circle style="color:#000000;enable-background:accumulate;fill:#10395c" transform="matrix(0,-1,-1,0,0,0)" cy="-256.2" cx="-256" r="40"/>
<circle r="51.449" style="opacity:0.233;color:#000000;enable-background:accumulate;fill:#fff" cx="299.39" cy="213.55"/>
</g>
<g transform="matrix(.069526 0 0 .069526 -131.71 212.32)">
<path style="color:#000000;fill:url(#linearGradient4226-0)" d="m0 0v512h512v-512z"/>
<path style="opacity:.1;color:#000000;fill:#fff" d="m0 256v256h512v-256z"/>
<path d="m163.31 144c-12.87 0-19.31 0-19.31 15v18.008c0 14.99 6.44 14.99 19.31 14.99h9.375c12.88 0 19.32 0 19.32-15v-18c0-14.46-6.44-15-19.31-15zm60 0c-12.87 0-19.31 0-19.31 15v18.008c0 14.99 6.44 14.99 19.31 14.99h9.375c12.88 0 19.32 0 19.32-15v-18c0-14.46-6.44-15-19.31-15zm60 0c-12.87 0-19.31 0-19.31 15v18.008c0 14.99 6.44 14.99 19.31 14.99h9.375c12.88 0 19.32 0 19.32-15v-18c0-14.46-6.44-15-19.31-15zm-120 60c-12.87 0-19.31 0-19.31 15v18.008c0 14.99 6.44 14.99 19.31 14.99h9.375c12.88 0 19.32 0 19.32-15v-18c0-14.46-6.44-15-19.31-15zm60 0c-12.87 0-19.31 0-19.31 15v18.008c0 14.99 6.44 14.99 19.31 14.99h9.375c12.88 0 19.32 0 19.32-15v-18c0-14.46-6.44-15-19.31-15zm-60 60c-12.87 0-19.31 0-19.31 15v18.008c0 14.99 6.44 14.99 19.31 14.99h9.375c12.88 0 19.32 0 19.32-15v-18c0-14.46-6.44-15-19.31-15z" style="opacity:.2;color:#000000;fill:#e5ff80" transform="translate(-32,-32)"/>
</g>
<g transform="matrix(.069526 0 0 .069526 -131.71 212.32)">
<path style="opacity:.05;fill-opacity:0;color:#000000" d="m219.31 124-35.188 71.656v59.25c-4.9399 5.788-10.339 11.62-15.969 17.25-18.503 18.503-39.248 34.687-53.125 39.312l-23.374-23.35-71.656 35.19v170.69h256v-317.56c-15.42-33.45-32.37-45.92-56.69-52.44zm-97.56 229c0.007-0.005 0.0239 0.005 0.0312 0-2.6107 1.6304-5.251 3.2267-7.9062 4.8125 2.6559-1.5856 5.2637-3.1824 7.875-4.8125zm-24.094 14.062c0.008-0.004 0.0234 0.004 0.0312 0-2.7418 1.4991-5.5286 2.9806-8.3125 4.4375 2.7843-1.4568 5.5391-2.9386 8.2813-4.4375z"/>
<g style="stroke-width:1.443;enable-background:new" transform="matrix(.69301 0 0 .69301 78.652 78.59)">
<path d="m377.06 51.096-52.99 120.5 25.464 42.436c-0.0369 0.0579-0.0783 0.11964-0.11555 0.17756l4.4192 7.4291c-19.138 25.886-40.56 49.801-62.604 71.854l0.003 0.003c-0.0523 0.0521-0.10561 0.10277-0.15783 0.15501l-0.15782 0.15782c-22.09 22.081-46.049 43.534-71.986 62.697l-7.4207-4.4135c-0.0579 0.0372-0.11684 0.0787-0.17473 0.11556l-42.43-25.48-120.5 52.99c8.4466 37.308 21.008 101.08 77.786 84.133 52.315-15.616 96.191-46.806 135.52-81.921l-0.008-0.006c21.415-17.96 41.501-37.337 60.763-56.592l0.003 0.003 0.15784-0.15784c0.0517-0.0517 0.10326-0.10617 0.155-0.15782 19.219-19.226 38.559-39.275 56.491-60.645l0.006 0.008c35.11-39.34 66.29-83.21 81.91-135.53 16.95-56.776-46.82-69.338-84.13-77.784z" style="opacity:.2;color:#000000;filter:url(#filter4300);enable-background:accumulate;fill:url(#linearGradient4284)"/>
<path style="opacity:.1;color:#000000;filter:url(#filter4315);enable-background:accumulate" d="m377.06 51.096-52.99 120.5 25.464 42.436c-0.0369 0.0579-0.0784 0.11962-0.11558 0.17756l4.4192 7.4291c-19.138 25.886-40.56 49.801-62.604 71.854l0.003 0.003c-0.0524 0.0521-0.10562 0.10274-0.15783 0.15501l-0.15782 0.15782c-22.09 22.081-46.049 43.534-71.986 62.697l-7.4207-4.4135c-0.0579 0.0372-0.11688 0.0786-0.17473 0.11558l-42.43-25.48-120.5 52.99c8.4466 37.308 21.008 101.08 77.786 84.133 52.315-15.616 96.191-46.806 135.52-81.921l-0.009-0.006c21.415-17.96 41.501-37.337 60.763-56.592l0.003 0.003 0.15784-0.15783c0.0516-0.0518 0.10331-0.10621 0.155-0.15782 19.219-19.226 38.559-39.275 56.491-60.645l0.006 0.009c35.11-39.34 66.29-83.21 81.91-135.53 16.95-56.776-46.82-69.337-84.13-77.784z"/>
<path style="color:#000000;enable-background:accumulate;fill:url(#linearGradient4257)" d="m417.65 68.222c2.164 8.4396 1.9363 18.336-1.5507 30.017-22.67 75.931-72 139.48-124.87 192.37l0.002 0.002c-0.0523 0.0521-0.10444 0.10444-0.15665 0.15667l-0.15841 0.15839-0.002-0.002c-52.885 52.864-116.43 102.19-192.37 124.86-11.681 3.487-21.576 3.7147-30.016 1.5507 11.5 25.71 30.571 45.091 66.063 34.497 75.934-22.667 134.98-76.502 187.86-129.37l0.002 0.002 0.15843-0.15843c0.0522-0.0522 0.10443-0.10454 0.15664-0.15665l-0.002-0.002c52.864-52.885 106.7-111.93 129.37-187.86 10.595-35.493-8.7858-54.565-34.497-66.065z"/>
<path d="m378.78 181.51c-12.587 20.968-26.921 40.774-42.289 59.469l23.566 42.426c19.41-21.248 37.87-43.732 53.678-68.023z" style="opacity:.1;color:#000000;enable-background:accumulate;fill:url(#linearGradient4432)"/>
<path d="m377.06 48.21-52.99 120.5 25.46 42.44c-0.0369 0.0579-0.0787 0.11725-0.11594 0.17517l29.856 50.189c35.114-39.328 66.302-83.203 81.918-135.52 16.948-56.778-46.824-69.34-84.131-77.786z" style="color:#000000;enable-background:accumulate;fill:#f1f8e7"/>
<path style="color:#000000;enable-background:accumulate;fill:url(#linearGradient4257)" d="m48.4 376.85 120.5-52.989 42.438 25.462c0.0579-0.0369 0.11725-0.0787 0.17518-0.11593l50.189 29.856c-39.328 35.114-83.203 66.302-135.52 81.918-56.778 16.948-69.34-46.824-77.786-84.131z"/>
<path d="m339.96 112-36.723 83.51 0.50781 0.8457l36.21-82.36c22.62 5.1213 59.278 12.426 60.23 40.523 0.75-29.75-37.09-37.28-60.23-42.52zm-16.76 119.07c-13.095 17.599-27.695 33.884-42.719 48.914l0.002 0.002c-0.0363 0.0361-0.0732 0.0712-0.10938 0.10742l-0.10937 0.10937c-15.308 15.302-31.913 30.17-49.887 43.449l-5.1426-3.0586c-0.0401 0.0258-0.081 0.0545-0.12109 0.0801l-29.41-17.64-83.51 36.72c0.13199 0.583 0.27494 1.2195 0.41016 1.8203l83.1-36.541 29.408 17.645c0.0401-0.0255 0.081-0.0543 0.12109-0.0801l5.1426 3.0586c17.974-13.28 34.578-28.147 49.887-43.449l0.10937-0.10937c0.0362-0.0362 0.0731-0.0713 0.10938-0.10742l-0.002-0.002c15.277-15.282 30.122-31.856 43.385-49.795l-0.66601-1.1191z" style="color:#000000;enable-background:accumulate;fill:#fff" transform="matrix(1.443 0 0 1.443 -113.49 -113.4)"/>
</g>
</g>
<g style="enable-background:new" transform="matrix(.069841 0 0 .069841 -89.735 253.53)">
<path style="color:#000000;enable-background:accumulate;fill:#414141" d="m0 0v512h512v-512z"/>
<path style="opacity:.05;color:#000000;enable-background:accumulate;fill:url(#linearGradient4284-5)" d="m0 8v16h512v-16zm0 32v16h512v-16zm0 32v16h512v-16zm0 32v16h512v-16zm0 32v16h512v-16zm0 32v16h512v-16zm0 32v16h512v-16zm0 32v16h512v-16zm0 32v16h512v-16zm0 32v16h512v-16zm0 32v16h512v-16zm0 32v16h512v-16zm0 32v16h512v-16zm0 32v16h512v-16zm0 32v16h512v-16zm0 32v16h512v-16z"/>
<path d="m0 512 512-512v512z" style="opacity:0.03;color:#000000;stroke:#808080;enable-background:accumulate;fill:#fff"/>
<g>
<path style="opacity:.1;filter:url(#filter4340);enable-background:new" d="m108.94 138-4.9353 14.806 50.1 20.04-50.1 20.04 4.9353 14.806 64.458-27.219v-15.254zm66.288 90.031v15.105h74.77v-15.105z" transform="matrix(1.0403 0 0 1.0432 -4.1883 -5.9262)"/>
<path style="opacity:.6;filter:url(#filter4422);enable-background:new;fill:url(#linearGradient4354)" d="m108.94 138-4.9353 14.806 50.1 20.04-50.1 20.04 4.9353 14.806 64.458-27.219v-15.254zm66.288 90.031v15.105h74.77v-15.105z" transform="matrix(1.0403 0 0 1.0432 -4.1883 -5.9262)"/>
<path style="opacity:.05;fill-opacity:0;color:#000000;enable-background:accumulate" d="m219.31 124-35.188 71.656v59.25c-4.9399 5.788-10.339 11.62-15.969 17.25-18.503 18.503-39.248 34.687-53.125 39.312l-23.374-23.35-71.656 35.19v170.69h256v-317.56c-15.42-33.45-32.37-45.92-56.69-52.44zm-97.56 229c0.007-0.005 0.0239 0.005 0.0312 0-2.6107 1.6304-5.251 3.2267-7.9062 4.8125 2.6559-1.5856 5.2637-3.1824 7.875-4.8125zm-24.094 14.062c0.008-0.004 0.0234 0.004 0.0312 0-2.7418 1.4991-5.5286 2.9806-8.3125 4.4375 2.7843-1.4568 5.5391-2.9386 8.2813-4.4375z"/>
<path d="m109.14 135.95-5.1343 15.446 52.121 20.906-52.121 20.906 5.1343 15.446 67.057-28.395v-15.914zm68.961 93.922v15.758h77.792v-15.758z" style="enable-background:new;fill:#f2f2f2"/>
<path d="m109.14 135.95-5.1346 15.447 0.6116 0.2445 4.523-13.605 67.056 28.395v-2.0864zm44.384 37.395-49.519 19.864 0.6116 1.8419 51.508-20.663zm24.576 56.527v2.0864h77.793v-2.0864z" style="enable-background:new;fill:#fff"/>
</g>
</g>
<g transform="matrix(.28107 0 0 .28107 -173.81 294.62)">
<rect style="color-rendering:auto;color:#000000;isolation:auto;mix-blend-mode:normal;paint-order:stroke fill markers;shape-rendering:auto;solid-color:#000000;image-rendering:auto;stroke-width:1.875;fill:#225684" height="127" width="127" y=".003119" x=".003119"/>
<path style="opacity:.1;fill:#e2e2e2" d="m60.56 38.73v7.239h1.784l1.81-0.9052v-1.81l0.9046-0.9052-1.81-0.9046 0.6335-0.724c3.529 0.543 6.787 1.81 9.593 3.71l-0.2717 0.6335 0.9052 1.81-0.9052 0.9052 0.9052 1.81h0.9046v1.81h-0.9046l-0.9052 1.81h-0.9046l0.9046 0.9052 0.9052 0.9046v0.9052h-1.81l-0.9052 0.9046v1.81h1.81v0.9052l0.9052-0.9052h0.9046v-1.81h0.9052l-0.9052-0.9046h1.81l2.715 1.81-0.9052 0.9046 0.9052 0.9052 0.9052-1.81 0.9046 1.81h0.9052l0.9046 1.81h-0.9046l-0.9052-0.9046-0.9046 0.9046h-0.9052l-0.9052-0.9046-0.9046-1.81h-1.81l-0.9052 0.9052h-1.8l-0.9046 0.9052-0.9052 1.81h-0.9052l-0.9046 2.714v1.81l-0.9052 0.9046v0.9052l0.9052 0.9046 0.9046 1.81 1.81 0.9052h1.81l1.81-0.9052 0.9046 0.9052-0.9046 1.81 0.9046 0.9052v2.714h-0.9046l-0.9052 1.81v0.9052l-1.81 2.715v0.814c-3.613 2.349-7.948 3.705-12.64 3.71v1.81c13.92-0.014 25.31-11.41 25.31-25.34-0.000004-13.93-11.39-25.32-25.31-25.34zm12.64 14.47v-1.81l-1.81-1.81h-0.9052l0.9052 0.9046h-0.9052v1.81h0.905v-0.9052h0.9052v0.9052zm-9.049-7.239 0.9046 0.9046 0.9052 0.9052 1.81-0.9052-0.9052-0.9046h-1.81zm10.86 0.9046h0.9052l0.9046 1.81 0.9052 0.9052v0.9046l-0.9052 0.9052h-0.9046l0.9046-0.9052v-1.81h-0.9046zm6.335 8.145 0.9052 0.9052h0.3617c0.0905 0.2715 0.1812 0.6332 0.2717 0.9046h-1.539zm-20.79 19.47v3.141l1.784-0.892-0.905-1.81z"/>
<rect style="opacity:.1;color-rendering:auto;color:#000000;isolation:auto;mix-blend-mode:normal;paint-order:stroke fill markers;shape-rendering:auto;solid-color:#000000;image-rendering:auto;stroke-width:1.875;fill:#fff" height="49.61" width="127" y="77.25" x=".003119"/>
<path style="color:#000000;fill:#eaeaea" d="m63.45 11.38-7.69 27.76c-2.911 0.8797-5.609 2.247-8.004 4.003l-12.53-6.757 6.757 12.53c-1.756 2.396-3.123 5.094-4.003 8.005l-27.76 7.692 27.76 7.693c0.5062 1.675 1.178 3.276 1.988 4.793l4.984-4.984c-0.9406-2.317-1.462-4.848-1.462-7.502 0-11.02 8.936-19.96 19.96-19.96s19.96 8.936 19.96 19.96-8.936 19.96-19.96 19.96c-2.043 0-4.013-0.3078-5.869-0.8779-2.184 2.185-2.848 2.85-5.133 5.136 1.067 0.4868 2.171 0.907 3.309 1.251l7.693 27.76 7.693-27.76c2.911-0.8797 5.609-2.247 8.004-4.003l12.53 6.757-6.757-12.53c1.756-2.396 3.123-5.094 4.003-8.005l27.77-7.69-27.78-7.69c-0.88-2.91-2.24-5.61-4-8.01l6.757-12.53-12.53 6.757c-2.396-1.756-5.093-3.123-8.004-4.003z"/>
<path style="fill:#eaeaea" d="m75.9 63.96c-0.1397-1.832-1.758-2.188-3.057-0.8891l-4.536 4.538c-1.053 1.061-2.78 1.058-3.835 0l-2.932-2.935c-1.064-1.07-1.061-2.791-0.0032-3.853l4.692-4.686c1.299-1.298 0.97-2.976-0.8537-3.193-3.527-0.4213-7.204 0.7195-9.913 3.426-2.064 2.066-3.215 4.701-3.459 7.401-0.09752 1.091-0.0465 2.192 0.1496 3.273l-25.18 25.18c-1.329 1.33-2.064 3.096-2.064 4.978 0 1.877 0.7339 3.64 2.06 4.969 2.743 2.741 7.204 2.741 9.951 0 0 0 18.1-18.1 25.42-25.44 1.152 0.1574 2.319 0.1464 3.466-0.0354 2.424-0.3792 4.753-1.489 6.623-3.357 2.574-2.574 3.728-6.02 3.47-9.381zm-41.57 36.04c-1.439 1.431-3.753 1.431-5.188-0.004-1.428-1.424-1.431-3.751 0.0032-5.179 1.431-1.428 3.747-1.424 5.18 0 1.428 1.428 1.428 3.753 0.0046 5.182z"/>
</g>
<g transform="matrix(1.1039 0 0 1.1039 -131.58 294.75)">
<path style="fill:#333" d="m0 0v32h32v-32z"/>
<path style="fill:#fff" d="m13.98 6.443c-0.64 1.323-1.26 2.683-1.86 4.077-0.5817 1.379-1.187 2.836-1.806 4.38-0.1366 0.3517-0.268 0.7338-0.4065 1.096h4.041c0.04343-0.1206 0.09648-0.2558 0.1395-0.3746 0.2908-0.7539 0.5449-1.439 0.7812-2.065 0.2363-0.6252 0.44-1.176 0.6218-1.654 0.1818-0.4781 0.3196-0.86 0.4105-1.136 0.1091 0.2759 0.2527 0.6577 0.4344 1.136 0.1818 0.4781 0.4014 1.029 0.6377 1.654 0.2545 0.6251 0.5125 1.311 0.7851 2.065 0.04301 0.1188 0.09208 0.254 0.1355 0.3746h4.193c-0.14-0.36-0.28-0.74-0.42-1.1-0.6-1.54-1.2-3-1.8-4.38-0.6-1.393-1.21-2.753-1.83-4.077h-4.053zm-5.545 10.36c-1.103 0-1.993 0.8858-1.993 1.989s0.8898 1.993 1.993 1.993h15.13c1.103 0 1.993-0.8898 1.993-1.993s-0.8898-1.989-1.993-1.989zm0 0.7972h9.557c0.6618 0 1.192 0.5299 1.192 1.192 0 0.6618-0.5299 1.196-1.192 1.196h-9.557c-0.6618 0-1.196-0.5339-1.196-1.196 0-0.6618 0.5339-1.192 1.196-1.192zm-0.5739 3.918c-0.4579 1.281-0.9258 2.613-1.419 4.045h4.416c0.2-0.662 0.4253-1.346 0.6616-2.045 0.2364-0.649 0.4648-1.288 0.6855-1.937h-3.77c-0.1972 0-0.3885-0.0251-0.5739-0.06377zm16.27 0c-0.1818 0.03709-0.3689 0.06377-0.562 0.06377h-3.906c0.2194 0.6489 0.4382 1.288 0.6576 1.937 0.2545 0.6987 0.4856 1.383 0.6855 2.045h4.556c-0.4931-1.432-0.961-2.764-1.419-4.045-0.0043 0.000763-0.008-0.000763-0.01195 0z"/>
</g>
<path style="color:#000000;fill:#20a4e2" d="m-89.693 294.62v35.673h35.673v-35.673z"/>
<path d="m-89.669 330.32 35.673-35.673v35.673z" style="opacity:.1;stroke-width:.069674;color:#000000;stroke:#808080;fill:#fff"/>
<path style="stroke-width:2.324;fill:#f7fbfe" d="m-66.911 317.76c0.80541-2.1458 3.7574-10.308 4.2377-12.45 0.5437-2.4241-0.55029-2.6679-3.0498-1.8757-2.5003 0.79338-8.9106 3.11-9.9897 3.4822-1.0791 0.37289-6.3317 2.0898-7.4213 2.6064-2.2278 1.1712-1.1638 2.9953 1.3077 3.9594 7.3813 3.6193 5.2933 1.7885 8.5455 8.3979 0.66695 1.6872 2.2488 4.5644 3.8054 2.4114 0.81868-1.2247 1.9315-4.8458 2.5641-6.5325z"/>
<path style="stroke-linejoin:round;stroke-width:1.1939;color:#000000;stroke:#aea79f;stroke-linecap:round;fill:#fff" d="m0.59766 0.59766v538.62h542v-538.62l-542-0.00234zm90.066 50.652h47.146c38.08 0 43.52 5.43 43.52 43.475v38.975c0 38.05-5.44 43.48-43.52 43.48h-47.146c-38.082 0-43.523-5.43-43.523-43.48v-38.975c0-38.045 5.443-43.475 43.523-43.475zm158 0h47.15c38.08 0 43.52 5.43 43.52 43.475v38.975c0 38.05-5.44 43.48-43.52 43.48h-47.15c-38.08 0-43.52-5.43-43.52-43.48v-38.975c0-38.045 5.44-43.475 43.52-43.475zm158.69 0.34h47.38c38.27 0 43.74 5.455 43.74 43.689v39.171c0 38.24-5.47 43.69-43.74 43.69h-47.38c-38.27 0-43.74-5.45-43.74-43.69v-39.171c0-38.235 5.47-43.689 43.74-43.689zm-316.69 155.66h47.146c38.08 0 43.52 5.43 43.52 43.47v38.98c0 38.05-5.44 43.48-43.52 43.48h-47.146c-38.082 0-43.523-5.43-43.523-43.48v-38.98c0-38.04 5.443-43.47 43.523-43.47zm158 0h47.15c38.08 0 43.52 5.43 43.52 43.47v38.98c0 38.05-5.44 43.48-43.52 43.48h-47.15c-38.08 0-43.52-5.43-43.52-43.48v-38.98c0-38.04 5.44-43.47 43.52-43.47zm158.71 0h47.15c38.08 0 43.52 5.43 43.52 43.47v38.98c0 38.05-5.44 43.48-43.52 43.48h-47.15c-38.08 0-43.52-5.43-43.52-43.48v-38.98c0-38.04 5.44-43.47 43.52-43.47zm-316.71 154h47.146c38.08 0 43.52 5.43 43.52 43.47v38.98c0 38.05-5.44 43.48-43.52 43.48h-47.146c-38.082 0-43.523-5.43-43.523-43.48v-38.98c0-38.04 5.443-43.47 43.523-43.47zm158 0h47.15c38.08 0 43.52 5.43 43.52 43.47v38.98c0 38.05-5.44 43.48-43.52 43.48h-47.15c-38.08 0-43.52-5.43-43.52-43.48v-38.98c0-38.04 5.44-43.47 43.52-43.47zm158.71 0h47.15c38.08 0 43.52 5.43 43.52 43.47v38.98c0 38.05-5.44 43.48-43.52 43.48h-47.15c-38.08 0-43.52-5.43-43.52-43.48v-38.98c0-38.04 5.44-43.47 43.52-43.47z" transform="matrix(.26458 0 0 .26458 -185.99 199.77)"/>
</g>
</svg>
